<svg xmlns="http://www.w3.org/2000/svg" width="512" height="512" fill="none" viewBox="0 0 512 512" id="status"><g clip-path="url(#clip0_84_15702)"><rect width="512" height="512" fill="#4360DF" rx="60"></rect><path fill="#fff" fill-rule="evenodd" d="M257.174 241.273C274.02 243.029 290.868 244.785 311.58 243.629C367.698 240.496 401.691 211.651 399.279 168.532C396.82 124.664 351.596 97.6363 306.346 100.163C232.604 104.277 178.377 169.116 172.27 243.223C182.285 240.874 192.826 239.472 202.766 238.916C223.48 237.762 240.327 239.517 257.174 241.273ZM112.614 337.178C114.941 377.392 157.786 402.168 200.655 399.85C270.515 396.078 321.891 336.643 327.675 268.71C318.188 270.865 308.203 272.152 298.784 272.66C279.161 273.72 263.2 272.11 247.238 270.501C231.278 268.891 215.317 267.281 195.694 268.341C142.533 271.213 110.326 297.654 112.614 337.178Z" clip-rule="evenodd"></path></g><defs><clipPath id="clip0_84_15702"><rect width="512" height="512" fill="#fff"></rect></clipPath></defs></svg>